<svg id="Layer_1" data-name="Layer 1" xmlns="http://www.w3.org/2000/svg" viewBox="0 0 512 512"><title>Artboard 1</title><path d="M310.33,286.59,346,275.84c0,22.09,2.18,44.22-.41,65.79-7.58,63.23-36,115.95-85.12,157-3.92,3.27-7.16,7-13.06,2.24-37.32-30.23-63-68.21-78.28-114.63,14.71,4.11,28.34,7.58,41.7,11.92,2.82.92,4.87,4.84,6.83,7.69,10.73,15.59,21.33,31.27,33.14,48.64C299.72,406.25,313,349.33,310.33,286.59Z"/><path d="M162.65,230.41,153.72,267c-40.88-18.76-74.87-44.92-101.38-80.29-24-32-39.61-67.9-45.14-107.75-.46-3.35,1.4-9.47,3.74-10.4C50.33,52.86,91.07,49.18,134.07,55.68,123.45,67.12,114,77.79,103.91,87.78c-2.13,2.11-6.71,2-10.22,2.41C79.94,91.91,66.17,93.44,52.74,95,51.55,135.3,94.45,187.44,162.65,230.41Z"/><path d="M452.92,198.08c-4.44-18.3-8.13-32-10.9-45.89-.77-3.85.5-8.49,2-12.35,4.75-12.55,10-24.9,15.46-38.23-33-11-64.54-12.2-95.26-2.92-23.68,7.15-46.3,18.11-68.88,28.48-7,3.24-11.58,4.82-16.68-2.11C273.41,118,267.57,111.3,261,103.16,273.9,96,289,86.48,305.15,79.07c61.66-28.32,124.66-31.26,188.7-8.17,6.5,2.34,10.74,5,9.16,13.3-7.59,39.75-23.38,75.68-48.58,107.42C453.54,192.74,453.67,194.68,452.92,198.08Z"/><path d="M367.76,54.34c-14.71,4.39-28.3,8.66-42,12.37-2.82.76-6.48,0-9.3-1.12C223.63,27.54,122.82,85.21,104.63,178.83c-.12.59-.8,1.08-2.57,3.33-8.32-10.08-16.61-19.6-24.14-29.68-1.45-1.95-.7-6.32.25-9.17C99.6,78.49,167.37,25.81,235.38,19.8c41.94-3.7,81.18,3.63,117.72,24.74,2.86,1.65,5.71,3.35,8.48,5.16C363.39,50.88,365.06,52.3,367.76,54.34Z"/><path d="M369.86,100.44c3.77-.54,6.26-1,8.77-1.25,37.88-4,31.91-10.16,49.48,27,44.83,94.68,9.8,201.14-80.35,250.86-1.28.71-2.65,1.25-4.38,2.05,2.12-14.18,4-28,6.41-41.8.44-2.54,2.56-5.26,4.67-7,69-55.41,78.41-158.55,17.33-225.79C371.13,103.78,370.9,102.66,369.86,100.44Z"/><path d="M301.92,359.69c-4.57,12.28-8,23.07-12.75,33.29-1.25,2.72-6.13,4.91-9.58,5.31-55.61,6.46-105.12-8.54-147.31-45-41.21-35.64-63.12-81.35-65.65-136a33.47,33.47,0,0,1,.19-4.35c0-.23.48-.42.82-.69,12.1,10.48,24.32,20.85,36.21,31.59,2,1.78,2.77,5.07,3.62,7.82,25,81.27,101.15,126.46,184,109.24C294.15,360.3,296.93,360.23,301.92,359.69Z"/><path d="M152.84,97.31C165.6,88.65,176.5,80.79,188,73.86c2.34-1.42,7.17-.16,10.21,1.24C262,104.58,309,150.4,334.35,216.87c5.34,14,5.3,14.07-9.26,19.37-6.21,2.26-12.51,4.31-18.8,6.34a10.76,10.76,0,0,1-3.17,0C280.33,167.49,229.27,121.32,152.84,97.31Z"/><path d="M206.48,245.78c77.33,18,142.92-3,200.81-56.47,0,15.29.59,29-.38,42.67-.27,3.81-4.41,8.31-8,10.78-48.5,33.75-102.67,47.73-161.34,45-13-.59-26-2.51-39.9-3.91Z"/><path d="M222.91,136l28.61,24.66c-49.91,52.2-61.78,115.3-54,187.91-13.92-9.39-25.71-17-37-25.29-2.16-1.58-3.3-5.72-3.44-8.74C154,247.33,175.36,188.7,219.61,138.23,220.08,137.7,220.81,137.41,222.91,136Z"/></svg>